<svg id="Grupo_1450" data-name="Grupo 1450" xmlns="http://www.w3.org/2000/svg" width="136.816" height="155.344" viewBox="0 0 136.816 155.344">
  <path id="Caminho_1836" data-name="Caminho 1836" d="M115.78,6.6a4.729,4.729,0,0,0-5.231-4.087,4.64,4.64,0,0,0-4.087,5.231A80.466,80.466,0,0,1,89.787,67.907l-.654.817A4.674,4.674,0,0,0,89.3,74.61,17.645,17.645,0,0,1,93.22,86.38c0,16.185-17.819,37.927-35.966,43.976a4.957,4.957,0,0,0-3.27,4.087L53,152.753a4.858,4.858,0,0,0,4.414,5.068h.327a4.8,4.8,0,0,0,4.741-4.414l.981-15.2c20.6-8.5,39.235-32.86,39.235-51.823a27.5,27.5,0,0,0-3.924-14.713A90.262,90.262,0,0,0,115.78,6.6Z" transform="translate(20.309 -2.477)" fill="#212121"/>
  <path id="Caminho_1837" data-name="Caminho 1837" d="M79.12,53.794A4.6,4.6,0,0,0,73.235,56.9c-1.962,5.885-8.5,15.2-17,20.6a4.868,4.868,0,0,0-1.471,6.539,4.434,4.434,0,0,0,3.924,2.125,4.257,4.257,0,0,0,2.452-.654c9.318-5.885,18.146-16.675,20.925-25.666A4.619,4.619,0,0,0,79.12,53.794Z" transform="translate(21.003 29.946)" fill="#212121"/>
  <path id="Caminho_1838" data-name="Caminho 1838" d="M67.245,130.356C49.1,124.308,31.279,102.4,31.279,86.38A17.947,17.947,0,0,1,35.2,74.61a4.674,4.674,0,0,0,.163-5.885l-.49-.654A82.282,82.282,0,0,1,18.2,7.746a4.64,4.64,0,0,0-4.087-5.231A4.729,4.729,0,0,0,8.882,6.6a90.262,90.262,0,0,0,17,65.065A27.5,27.5,0,0,0,21.961,86.38c0,18.964,18.8,43.322,39.4,51.823l.981,15.2a4.8,4.8,0,0,0,4.741,4.414h.327a4.757,4.757,0,0,0,4.414-5.068l-1.144-18.31A5.447,5.447,0,0,0,67.245,130.356Z" transform="translate(-8.155 -2.477)" fill="#212121"/>
  <path id="Caminho_1839" data-name="Caminho 1839" d="M97.719,65.81a4.888,4.888,0,0,0,3.76-1.8l2.125-2.779A71.312,71.312,0,0,0,118.318,8.1a4.729,4.729,0,0,0-5.231-4.087A4.64,4.64,0,0,0,109,9.246,61.964,61.964,0,0,1,96.084,55.511l-.163.327c-7.357-1.8-16.021-2.616-26.647-2.616s-19.291.817-26.647,2.616l-.163-.327A61.964,61.964,0,0,1,29.548,9.246a4.64,4.64,0,0,0-4.087-5.231A4.729,4.729,0,0,0,20.23,8.1,71.312,71.312,0,0,0,34.943,61.233l2.125,2.779a4.858,4.858,0,0,0,5.068,1.635C49.165,63.685,58.32,62.7,69.274,62.7s20.108.981,27.138,2.943A3.187,3.187,0,0,0,97.719,65.81Z" transform="translate(-0.865 -1.524)" fill="#212121"/>
</svg>
