<svg id="Grupo_1449" data-name="Grupo 1449" xmlns="http://www.w3.org/2000/svg" width="153.418" height="110.201" viewBox="0 0 153.418 110.201">
  <path id="Caminho_1834" data-name="Caminho 1834" d="M93.366,19.437c-9.812-1.427-15.7,2.319-18.91,5.709-5.709,5.887-7.136,14.807-6.065,20.872a18.911,18.911,0,0,0,3.746,8.92C64.109,59.4,54.476,67.425,53.406,81.161S51.8,122.548,51.8,123.618a5.494,5.494,0,0,0,5.173,5.53h.178a5.333,5.333,0,0,0,5.352-5.173c0-.357.535-28.364,1.606-41.922a16.831,16.831,0,0,1,2.854-8.384A34.934,34.934,0,0,1,75.7,79.2a25.469,25.469,0,0,0,3.568,16.055,17.019,17.019,0,0,0,14.985,8.028h1.784c17.839-1.427,29.256-17.126,29.256-39.96C125.3,41.2,111.383,21.934,93.366,19.437ZM81.056,62.786a17.1,17.1,0,0,0,.892,5.53l-1.606,1.07A34.931,34.931,0,0,0,74.991,66,33.775,33.775,0,0,1,81.056,62.786Zm14.271,29.97c-1.427.178-5.352.535-7.849-4.817-1.962-4.281-1.249-8.92-.357-10.347a12.15,12.15,0,0,1,7.136,2.854,5.3,5.3,0,0,0,7.671-7.314,21.284,21.284,0,0,0-7.314-4.638h0s-3.568-2.319-2.5-9.455c6.6-2.854,10.7-8.741,11.239-9.455a5.355,5.355,0,0,0-1.427-7.314A5.437,5.437,0,0,0,94.436,43.7c-.892,1.427-4.281,5.173-8.028,6.065a6.026,6.026,0,0,1-4.638-.357c-1.606-1.07-2.319-3.389-2.676-5.173-.714-3.389.178-8.563,3.211-11.6q3.479-3.479,9.633-2.676c12.487,1.784,22.656,16.769,22.656,33.359C114.594,76.7,109.6,91.508,95.328,92.756Z" transform="translate(28.12 -19.125)" fill="#212121"/>
  <path id="Caminho_1835" data-name="Caminho 1835" d="M59.983,55.037a19.768,19.768,0,0,0,3.746-8.92c1.07-6.065-.357-14.985-6.065-20.872-3.211-3.389-9.276-7.136-18.91-5.709C20.915,21.856,7,41.122,7,63.243c0,22.834,11.417,38.711,29.078,40.138h1.784a17.633,17.633,0,0,0,14.985-8.028A24.369,24.369,0,0,0,56.415,79.3a36.838,36.838,0,0,1,8.741-5.53,20.312,20.312,0,0,1,2.854,8.384c1.07,13.379,1.606,41.565,1.606,41.922a5.333,5.333,0,0,0,5.352,5.173h.178a5.156,5.156,0,0,0,5.173-5.53c0-1.249-.535-28.721-1.606-42.457S68.01,59.319,59.983,55.037ZM51.955,69.309a4.212,4.212,0,0,0-1.606-1.07,17.1,17.1,0,0,0,.892-5.53,33.776,33.776,0,0,1,6.065,3.211A34.93,34.93,0,0,0,51.955,69.309ZM44.819,87.861C42.5,93.213,38.4,92.856,36.97,92.678,22.7,91.429,17.7,76.623,17.7,63.243c0-16.591,10.168-31.575,22.656-33.359q6.422-.8,9.633,2.676c2.854,3.033,3.746,8.206,3.211,11.6-.357,1.784-1.07,4.1-2.676,5.173-1.249.892-3.211.714-4.638.357-3.746-.892-7.136-4.638-8.028-6.065a5.406,5.406,0,0,0-7.492-1.427,5.254,5.254,0,0,0-1.427,7.492c.535.714,4.638,6.6,11.239,9.455,1.07,6.779-2.319,9.1-2.676,9.455h.178a21.284,21.284,0,0,0-7.314,4.638,5.363,5.363,0,0,0,7.671,7.492,11.509,11.509,0,0,1,7.136-2.854C46.068,78.942,46.782,83.58,44.819,87.861Z" transform="translate(-7 -19.047)" fill="#212121"/>
</svg>
