<svg xmlns="http://www.w3.org/2000/svg" width="112.287" height="128.601" viewBox="0 0 112.287 128.601">
  <g id="Grupo_1451" data-name="Grupo 1451" transform="translate(-1687 -2289)">
    <path id="Caminho_1840" data-name="Caminho 1840" d="M120.072,53.106c-6.16-23.718-24.006-41.334-45.45-44.875C62.849,6.3,42.959,8.778,36.339,23.515a31.922,31.922,0,0,0,1.209,29.274l.489.691a37.017,37.017,0,0,0-23.229,23.6c-5.095,13.96-5.757,40.471-1.5,55.582a5.008,5.008,0,0,0,4.749,3.6,5.756,5.756,0,0,0,1.382-.2,4.951,4.951,0,0,0,3.4-6.131C19.1,116.92,19.73,92.511,24.105,80.479c5.757-15.572,17.271-18.94,26.222-19.026a21.761,21.761,0,0,0,3.915.374,4.748,4.748,0,0,0,.921,0h.4a4.951,4.951,0,1,0,1.267-9.815,49.942,49.942,0,0,0-5.411-.4A9.268,9.268,0,0,1,45.9,47.464,22.049,22.049,0,0,1,45.377,27.6C49.436,18.565,64,16.578,73.039,18.046c17.587,2.878,32.325,17.674,37.419,37.621,4.634,17.846,2.36,39.089-5.757,52.877a29.158,29.158,0,0,1-21.243,14.392,32.325,32.325,0,0,1-26.107-7.8c-7.225-6.707-8.29-20.984-4.087-27.633a5.066,5.066,0,0,0,2.1-2.159,4.951,4.951,0,0,0-2.245-6.62,14.392,14.392,0,0,0-12.665-.835c-4.778,2.072-8.376,7.052-10.708,14.8-2.619,8.635-4.116,26.741.806,39.434a4.98,4.98,0,0,0,4.605,3.166h0a4.576,4.576,0,0,0,1.785-.345,4.951,4.951,0,0,0,2.878-6.39c-3.857-9.959-2.878-25.56-.576-33.015A24.784,24.784,0,0,1,41.923,89.4c-2.878,11.139.518,25.359,8.635,32.987a41.392,41.392,0,0,0,28.093,10.765,46.517,46.517,0,0,0,6.333-.461,38.8,38.8,0,0,0,28.324-19.2C122.778,97.318,125.4,73.629,120.072,53.106Z" transform="translate(1676.495 2281.337)" fill="#212121"/>
    <path id="Caminho_1841" data-name="Caminho 1841" d="M32.751,50.357a29.878,29.878,0,0,0,15.572,9.528A5.963,5.963,0,0,0,51.432,48.37c-5.987-1.727-9.528-4.836-9.729-6.045a1.871,1.871,0,0,1,0-.288s1.813-1.439,9.729,0a5.93,5.93,0,0,0,6.851-4.318h0a5.958,5.958,0,0,0-4.548-7.138c-6.764-1.3-13.557-1.526-18.451,1.7a12.032,12.032,0,0,0-5.325,8.434,12.866,12.866,0,0,0,2.792,9.643Z" transform="translate(1712.867 2322.715)" fill="#212121"/>
    <path id="Caminho_1842" data-name="Caminho 1842" d="M49.652,28.369h0a4.865,4.865,0,0,0,1.526-6.908,4.98,4.98,0,0,0-6.908-1.41C37.821,24.224,27,31.219,32.065,40.66a11.974,11.974,0,0,0,11.514,5.987,34.541,34.541,0,0,0,11.773-2.475,4.951,4.951,0,0,0-3.742-9.125c-4.462,1.813-9.959,2.332-10.737.835C40.872,34.069,47.263,29.924,49.652,28.369Z" transform="translate(1714.533 2303.052)" fill="#212121"/>
  </g>
</svg>
