<svg xmlns="http://www.w3.org/2000/svg" width="41.345" height="41.341" viewBox="0 0 41.345 41.341">
  <path id="Exclusão_3" data-name="Exclusão 3" d="M-13908.83,42.34a20.042,20.042,0,0,1-14.263-5.907A20.041,20.041,0,0,1-13929,22.17a20.041,20.041,0,0,1,5.908-14.262A20.04,20.04,0,0,1-13908.83,2a20.046,20.046,0,0,1,14.264,5.909,20.034,20.034,0,0,1,5.91,14.262,20.034,20.034,0,0,1-5.91,14.263A20.045,20.045,0,0,1-13908.83,42.34Zm-6.17-10.966h0a11.032,11.032,0,0,0,6.105,1.835,11.117,11.117,0,0,0,11.1-11.106,11.115,11.115,0,0,0-11.1-11.1A11.116,11.116,0,0,0-13920,22.1a10.992,10.992,0,0,0,2.114,6.509l-1.388,4.125,4.272-1.363Zm9.756-3.052a9.436,9.436,0,0,1-3.254-.912,13.169,13.169,0,0,1-5.458-4.777c-.04-.058-.061-.088-.072-.1l-.017-.023a6.157,6.157,0,0,1-1.3-3.33,3.533,3.533,0,0,1,1.113-2.675l.023-.024a1.589,1.589,0,0,1,1.132-.4c.1,0,.188,0,.273.007l.1,0c.336.014.493.042.707.549.151.37.913,2.224,1,2.4a.667.667,0,0,1,.045.6,1.72,1.72,0,0,1-.329.479l-.027.032c-.063.072-.126.139-.187.2l-.019.02-.013.013c-.087.092-.178.187-.268.3l-.008.01a.514.514,0,0,0-.122.682,9.719,9.719,0,0,0,1.8,2.237,8.14,8.14,0,0,0,2.5,1.567l.045.018.056.023a.866.866,0,0,0,.32.063.629.629,0,0,0,.463-.186,10.908,10.908,0,0,0,.717-.936l.087-.12.067-.094a.613.613,0,0,1,.512-.3.822.822,0,0,1,.285.057c.188.064.92.411,2.173,1.031l.036.018.183.089c.228.109.376.18.439.292a2.766,2.766,0,0,1-.192,1.538,3.14,3.14,0,0,1-2.178,1.57A2.913,2.913,0,0,1-13905.244,28.322Z" transform="translate(13929.501 -1.5)" fill="#1080b1" stroke="rgba(0,0,0,0)" stroke-miterlimit="10" stroke-width="1"/>
</svg>
