<svg xmlns="http://www.w3.org/2000/svg" width="64.688" height="64.688" viewBox="0 0 64.688 64.688">
  <g id="Grupo_1395" data-name="Grupo 1395" transform="translate(-1524 -795.313)">
    <circle id="Elipse_5" data-name="Elipse 5" cx="28" cy="28" r="28" transform="translate(1528 800)" fill="#fff"/>
    <g id="Grupo_247" data-name="Grupo 247" transform="translate(1138.87 795.313)">
      <g id="Grupo_15" data-name="Grupo 15" transform="translate(385.13)">
        <path id="Caminho_11" data-name="Caminho 11" d="M417.482,0h-.016a32.324,32.324,0,0,0-26.178,51.3l-4.031,12.016,12.432-3.974A32.338,32.338,0,1,0,417.482,0ZM436.3,45.673c-.78,2.2-3.877,4.031-6.347,4.565-1.69.36-3.9.647-11.328-2.434-9.505-3.938-15.626-13.6-16.1-14.223-.457-.627-3.841-5.114-3.841-9.756a10.326,10.326,0,0,1,3.307-7.872,4.7,4.7,0,0,1,3.307-1.16c.4,0,.76.02,1.084.036.95.04,1.427.1,2.054,1.6.78,1.88,2.68,6.521,2.907,7a1.925,1.925,0,0,1,.137,1.751,5.59,5.59,0,0,1-1.047,1.484c-.477.55-.93.97-1.407,1.561-.437.513-.93,1.063-.38,2.013a28.7,28.7,0,0,0,5.248,6.521,23.778,23.778,0,0,0,7.585,4.678,2.045,2.045,0,0,0,2.28-.36,39.128,39.128,0,0,0,2.527-3.348,1.805,1.805,0,0,1,2.321-.7c.873.3,5.494,2.588,6.445,3.061s1.577.7,1.807,1.1A8.054,8.054,0,0,1,436.3,45.673Z" transform="translate(-385.13)" fill="#1080b1"/>
      </g>
    </g>
  </g>
</svg>
