<svg xmlns="http://www.w3.org/2000/svg" width="41.341" height="41.342" viewBox="0 0 41.341 41.342">
  <path id="Exclusão_1" data-name="Exclusão 1" d="M-9923.828,40.342a20.04,20.04,0,0,1-14.264-5.908A20.039,20.039,0,0,1-9944,20.172a20.043,20.043,0,0,1,5.908-14.264A20.04,20.04,0,0,1-9923.828,0a20.037,20.037,0,0,1,14.262,5.908,20.04,20.04,0,0,1,5.907,14.264,20.037,20.037,0,0,1-5.907,14.262A20.037,20.037,0,0,1-9923.828,40.342ZM-9930.618,10a2.26,2.26,0,0,0-1.583.652l-.839.834a.861.861,0,0,0-.082.107l-.454.7a.867.867,0,0,0-.062.13,6.063,6.063,0,0,0-.27,1.053c-.546,3.361,1.4,7.837,4.961,11.4,3.12,3.114,7.038,5.049,10.225,5.049a7.481,7.481,0,0,0,1.179-.092,6.162,6.162,0,0,0,1.053-.272.456.456,0,0,0,.125-.062l.7-.454a.505.505,0,0,0,.1-.08l.839-.839a2.229,2.229,0,0,0,0-3.147l-2.321-2.323a2.22,2.22,0,0,0-1.574-.649,2.221,2.221,0,0,0-1.575.649l-.566.564a1.7,1.7,0,0,1-1.226.516,1.707,1.707,0,0,1-.988-.314,19.487,19.487,0,0,1-2.443-2.076,19.463,19.463,0,0,1-2.076-2.443,1.713,1.713,0,0,1,.2-2.216l.564-.564a2.234,2.234,0,0,0,0-3.147l-2.323-2.323a2.214,2.214,0,0,0-1.522-.651Z" transform="translate(9944.5 0.5)" fill="#1080b1" stroke="rgba(0,0,0,0)" stroke-miterlimit="10" stroke-width="1"/>
</svg>
