<svg xmlns="http://www.w3.org/2000/svg" width="39.999" height="39.999" viewBox="0 0 39.999 39.999">
  <path id="União_2" data-name="União 2" d="M-9944,20a20,20,0,0,1,20-20,20,20,0,0,1,20,20,20,20,0,0,1-20,20A20,20,0,0,1-9944,20Zm28.252,7.053a1.621,1.621,0,0,0,1.252-.447,1.621,1.621,0,0,0,.5-1.233V14.624a1.6,1.6,0,0,0-.48-1.231,1.6,1.6,0,0,0-1.243-.449h-16.523a1.62,1.62,0,0,0-1.262.454,1.619,1.619,0,0,0-.486,1.25V25.38a1.772,1.772,0,0,0,.036.4,1.636,1.636,0,0,0,1.688,1.273Zm-1.7-2.224c-.261-.237-.512-.488-.764-.733q-1.449-1.4-2.885-2.8a.779.779,0,0,1-.108-.172c-.5.476-.947.876-1.383,1.276a1.929,1.929,0,0,1-1.417.62,1.923,1.923,0,0,1-1.415-.62c-.433-.4-.873-.82-1.316-1.268l-.16.148-3.6,3.481a.8.8,0,0,1-.881.22.756.756,0,0,1-.535-.636.8.8,0,0,1,.288-.716l3.563-3.449.18-.18-.168-.164-3.567-3.476a.8.8,0,0,1-.275-.8.8.8,0,0,1,.526-.574.8.8,0,0,1,.766.147,2.559,2.559,0,0,1,.2.18l5.836,5.66a.688.688,0,0,0,.563.293.69.69,0,0,0,.564-.293l5.908-5.728a.842.842,0,0,1,.8-.273.775.775,0,0,1,.6.514.775.775,0,0,1-.168.775c-.043.048-.092.092-.139.14l-3.508,3.432a2.475,2.475,0,0,1-.213.168l.188.192q1.781,1.729,3.564,3.449a.8.8,0,0,1,.312.74.757.757,0,0,1-.528.62.8.8,0,0,1-.275.049A.8.8,0,0,1-9917.444,24.828Z" transform="translate(9944)" fill="#1080b1"/>
</svg>
