<svg xmlns="http://www.w3.org/2000/svg" width="41.345" height="41.341" viewBox="0 0 41.345 41.341">
  <path id="Exclusão_2" data-name="Exclusão 2" d="M-13908.83,42.34a20.042,20.042,0,0,1-14.263-5.907A20.041,20.041,0,0,1-13929,22.17a20.041,20.041,0,0,1,5.908-14.262A20.04,20.04,0,0,1-13908.83,2a20.046,20.046,0,0,1,14.264,5.909,20.034,20.034,0,0,1,5.91,14.262,20.034,20.034,0,0,1-5.91,14.263A20.045,20.045,0,0,1-13908.83,42.34Zm.279-30.339A7.458,7.458,0,0,0-13916,19.45c0,3.515,4.067,10.949,7.449,12.476,3.382-1.528,7.449-8.961,7.449-12.476A7.458,7.458,0,0,0-13908.551,12Zm0,10.949a3.447,3.447,0,0,1-3.443-3.443,3.447,3.447,0,0,1,3.443-3.443,3.447,3.447,0,0,1,3.443,3.443A3.447,3.447,0,0,1-13908.551,22.949Z" transform="translate(13929.501 -1.5)" fill="#1080b1" stroke="rgba(0,0,0,0)" stroke-miterlimit="10" stroke-width="1"/>
</svg>
