<svg xmlns="http://www.w3.org/2000/svg" xmlns:xlink="http://www.w3.org/1999/xlink" width="176.243" height="93" viewBox="0 0 176.243 93">
  <defs>
    <clipPath id="clip-path">
      <path id="Exclusão_4" data-name="Exclusão 4" d="M27.553,55.106c-.471,0-.949-.012-1.418-.036s-.937-.059-1.4-.106-.923-.106-1.379-.175-.909-.151-1.357-.242c-.888-.182-1.776-.41-2.641-.679s-1.707-.578-2.531-.927S15.2,52.2,14.42,51.78s-1.54-.886-2.272-1.38-1.442-1.026-2.121-1.586S8.691,47.657,8.07,47.036s-1.219-1.279-1.778-1.957S5.2,43.687,4.706,42.958s-.959-1.5-1.38-2.272-.815-1.591-1.16-2.409S1.5,36.6,1.239,35.746s-.5-1.753-.679-2.641c-.092-.448-.173-.9-.242-1.357s-.129-.92-.175-1.379-.083-.934-.106-1.4S0,28.024,0,27.553s.012-.949.036-1.418.059-.937.106-1.4.106-.923.175-1.379S.468,22.448.56,22c.182-.888.41-1.776.679-2.641s.578-1.706.927-2.531S2.9,15.2,3.326,14.42s.886-1.54,1.38-2.272,1.026-1.442,1.586-2.121S7.449,8.691,8.07,8.07,9.35,6.851,10.027,6.292,11.42,5.2,12.148,4.706s1.5-.959,2.272-1.38,1.591-.815,2.409-1.16,1.677-.661,2.531-.927S21.113.741,22,.56c.448-.092.9-.173,1.357-.242s.92-.129,1.379-.175.934-.083,1.4-.106S27.082,0,27.554,0s.949.012,1.418.036.936.059,1.4.106.923.106,1.379.175.909.151,1.357.242c.888.182,1.776.41,2.641.679s1.706.578,2.531.927,1.628.736,2.409,1.16,1.54.885,2.272,1.38S44.4,5.732,45.08,6.292s1.336,1.157,1.957,1.778,1.219,1.279,1.778,1.957,1.094,1.393,1.586,2.121.959,1.5,1.38,2.272.815,1.591,1.16,2.409.661,1.677.927,2.531.5,1.753.679,2.641c.092.448.173.9.242,1.357s.129.919.175,1.379.083.934.106,1.4.036.946.036,1.418c0,.793-.034,1.594-.1,2.381s-.167,1.559-.3,2.325-.294,1.517-.488,2.26S53.8,35.989,53.55,36.7s-.533,1.418-.841,2.106-.644,1.36-1,2.016-.75,1.3-1.161,1.918-.85,1.228-1.308,1.812-.944,1.154-1.447,1.7-1.034,1.073-1.578,1.575-1.117.988-1.7,1.444-1.2.9-1.815,1.3-1.268.8-1.921,1.157-1.336.7-2.019,1-1.4.588-2.108.836-1.453.474-2.189.664V32.486c0-.137,0-.243.007-.324a5.27,5.27,0,0,1,.08-.677,4.856,4.856,0,0,1,.159-.624,4.665,4.665,0,0,1,.525-1.093,5.468,5.468,0,0,1,1.656-1.607,7.357,7.357,0,0,1,1.046-.554,8.394,8.394,0,0,1,2.144-.6,7.028,7.028,0,0,1,.97-.071c.115,0,.215,0,.289.006l.073-1.429c-.132-.007-.254-.011-.362-.011a8.322,8.322,0,0,0-1.149.084,9.948,9.948,0,0,0-2.543.714,8.744,8.744,0,0,0-1.241.658,6.881,6.881,0,0,0-2.1,2.052,6.232,6.232,0,0,0-.972,3.081c-.009.163-.013.293-.013.4V54.563c-.4.082-.822.156-1.242.221v-22.3c0-.118,0-.252-.012-.4a6.233,6.233,0,0,0-.973-3.081,6.881,6.881,0,0,0-2.1-2.051,8.745,8.745,0,0,0-1.241-.658,9.95,9.95,0,0,0-2.542-.714A8.316,8.316,0,0,0,23.76,25.5c-.108,0-.23,0-.362.011l.073,1.429c.075,0,.172-.006.289-.006a7.027,7.027,0,0,1,.97.071,8.394,8.394,0,0,1,2.144.6,7.362,7.362,0,0,1,1.046.554,5.465,5.465,0,0,1,1.656,1.607,4.667,4.667,0,0,1,.524,1.093,4.859,4.859,0,0,1,.159.624,5.276,5.276,0,0,1,.08.677c0,.078.007.181.007.324v22.48c-.459.046-.926.082-1.387.1S28.021,55.106,27.553,55.106Zm-12.5-44.248V41.543h.066a6.523,6.523,0,0,0,.151.765,6.149,6.149,0,0,0,.231.707,6.018,6.018,0,0,0,.3.65,6.094,6.094,0,0,0,.368.594,6.979,6.979,0,0,0,1.969,1.852,8.747,8.747,0,0,0,1.241.658,9.95,9.95,0,0,0,2.542.714,8.316,8.316,0,0,0,1.149.084c.1,0,.226,0,.362-.012l-.073-1.429c-.076,0-.173.006-.289.006a7.026,7.026,0,0,1-.97-.071,8.4,8.4,0,0,1-2.144-.6,7.36,7.36,0,0,1-1.046-.554A5.467,5.467,0,0,1,17.257,43.3a4.669,4.669,0,0,1-.525-1.093,4.861,4.861,0,0,1-.159-.624,5.272,5.272,0,0,1-.081-.677c0-.071-.006-.162-.007-.288v-13.7h5.2V25.483h-5.2v-13.7c0-.115,0-.212.007-.288a5.274,5.274,0,0,1,.081-.677,4.86,4.86,0,0,1,.159-.624A4.668,4.668,0,0,1,17.257,9.1a5.468,5.468,0,0,1,1.656-1.607,7.36,7.36,0,0,1,1.046-.554,8.4,8.4,0,0,1,2.144-.6,7.027,7.027,0,0,1,.97-.071c.117,0,.214,0,.289.006l.073-1.429c-.138-.007-.26-.011-.362-.011a8.313,8.313,0,0,0-1.149.084,9.954,9.954,0,0,0-2.542.714,8.754,8.754,0,0,0-1.241.658,6.98,6.98,0,0,0-1.969,1.852,6.093,6.093,0,0,0-.368.594,6.011,6.011,0,0,0-.3.65,6.144,6.144,0,0,0-.231.707,6.517,6.517,0,0,0-.151.765Z" transform="translate(0 0)"/>
    </clipPath>
    <linearGradient id="linear-gradient" x1="0.005" y1="0.452" x2="0.995" y2="0.548" gradientUnits="objectBoundingBox">
      <stop offset="0" stop-color="#006"/>
      <stop offset="1" stop-color="aqua"/>
    </linearGradient>
  </defs>
  <g id="Grupo_1394" data-name="Grupo 1394" transform="translate(-3363 -5025)">
    <g id="Grupo_de_máscara_1" data-name="Grupo de máscara 1" transform="translate(3423.567 5025)" clip-path="url(#clip-path)">
      <rect id="Retângulo_963" data-name="Retângulo 963" width="55.106" height="55.106" transform="translate(0 0)" fill="url(#linear-gradient)"/>
    </g>
    <g id="Grupo_1383" data-name="Grupo 1383" transform="translate(3363 5089.172)">
      <path id="Caminho_621" data-name="Caminho 621" d="M149.767,280.981v-.329h.453a1.2,1.2,0,0,0,1.083-.488,2.782,2.782,0,0,0,.2-1.315v-7.777a2.484,2.484,0,0,0-.248-1.411,1.3,1.3,0,0,0-1.03-.391h-.453v-.329h4.9a10.7,10.7,0,0,1,4.106.613,4.885,4.885,0,0,1,2.264,2.042,6.3,6.3,0,0,1,.857,3.3,6.027,6.027,0,0,1-1.527,4.2,6.718,6.718,0,0,1-5.22,1.882h-5.381Zm3.436-.87a9.07,9.07,0,0,0,1.891.248,4.49,4.49,0,0,0,3.418-1.447,6.36,6.36,0,0,0,0-7.857,4.588,4.588,0,0,0-3.489-1.438,7.547,7.547,0,0,0-1.821.258Z" transform="translate(-149.767 -268.354)" fill="#006"/>
      <path id="Caminho_622" data-name="Caminho 622" d="M187.5,278.835v1.829q1.021-1.829,2.1-1.829a1.14,1.14,0,0,1,.808.3.914.914,0,0,1,.319.688.814.814,0,0,1-.231.586.736.736,0,0,1-.55.239,1.168,1.168,0,0,1-.7-.306,1.149,1.149,0,0,0-.573-.306.529.529,0,0,0-.346.178,4.279,4.279,0,0,0-.826,1.2v3.9a2.41,2.41,0,0,0,.169,1.021.919.919,0,0,0,.408.4,1.8,1.8,0,0,0,.844.159v.32h-4.164v-.32a1.722,1.722,0,0,0,.923-.2.759.759,0,0,0,.311-.453,4.588,4.588,0,0,0,.044-.861v-3.153a13.257,13.257,0,0,0-.057-1.691.664.664,0,0,0-.213-.395.6.6,0,0,0-.386-.125,1.76,1.76,0,0,0-.622.133l-.089-.32,2.459-.994Z" transform="translate(-171.733 -274.581)" fill="#006"/>
      <path id="Caminho_623" data-name="Caminho 623" d="M205.152,296.775a.946.946,0,0,1,.7.289.987.987,0,0,1-1.4,1.394.991.991,0,0,1,0-1.4A.958.958,0,0,1,205.152,296.775Z" transform="translate(-184.004 -285.872)" fill="#006"/>
      <path id="Caminho_624" data-name="Caminho 624" d="M217.39,269.6v4.759h2.646a2.154,2.154,0,0,0,1.376-.311,2,2,0,0,0,.515-1.438h.328v4.19h-.328a4.61,4.61,0,0,0-.249-1.128,1.11,1.11,0,0,0-.524-.488,2.68,2.68,0,0,0-1.119-.178h-2.646v3.968a3.663,3.663,0,0,0,.071.972.557.557,0,0,0,.248.275,1.513,1.513,0,0,0,.675.1h2.042a5.528,5.528,0,0,0,1.483-.142,2.214,2.214,0,0,0,.888-.56,6.834,6.834,0,0,0,1.127-1.66h.355l-1.039,3.019h-9.278v-.329h.426a1.689,1.689,0,0,0,.808-.2.747.747,0,0,0,.386-.426,4.167,4.167,0,0,0,.1-1.163v-7.822a2.59,2.59,0,0,0-.231-1.412,1.374,1.374,0,0,0-1.066-.355h-.426v-.329h9.278l.133,2.637h-.347a4.156,4.156,0,0,0-.413-1.305,1.421,1.421,0,0,0-.67-.542,4.033,4.033,0,0,0-1.252-.133h-3.3Z" transform="translate(-190.169 -268.354)" fill="#006"/>
      <path id="Caminho_625" data-name="Caminho 625" d="M250.263,279.07a4.1,4.1,0,0,1-1.163.892,2.817,2.817,0,0,1-1.225.271,3.031,3.031,0,0,1-2.326-1.114,4.138,4.138,0,0,1-.994-2.864,5.177,5.177,0,0,1,1.1-3.2,3.4,3.4,0,0,1,2.832-1.451,2.44,2.44,0,0,1,1.776.684v-1.5a12.2,12.2,0,0,0-.067-1.714.747.747,0,0,0-.209-.435.546.546,0,0,0-.355-.116,1.868,1.868,0,0,0-.613.142l-.115-.311,2.424-.994h.4v9.4a12.634,12.634,0,0,0,.067,1.745.776.776,0,0,0,.213.44.512.512,0,0,0,.342.125,1.936,1.936,0,0,0,.639-.151l.1.311-2.415,1h-.409V279.07Zm0-.622v-4.191a2.835,2.835,0,0,0-.319-1.1,1.843,1.843,0,0,0-.706-.751,1.715,1.715,0,0,0-.857-.253,1.816,1.816,0,0,0-1.394.7,3.985,3.985,0,0,0-.808,2.7,4.237,4.237,0,0,0,.781,2.747,2.237,2.237,0,0,0,1.74.955A2.16,2.16,0,0,0,250.263,278.448Z" transform="translate(-209.422 -267.358)" fill="#006"/>
      <path id="Caminho_626" data-name="Caminho 626" d="M275.182,279.481v4.927a12.353,12.353,0,0,0,.067,1.727.778.778,0,0,0,.213.44.514.514,0,0,0,.342.125,1.584,1.584,0,0,0,.621-.151l.124.311-2.432,1h-.4V286.14a7.4,7.4,0,0,1-1.6,1.43,2.448,2.448,0,0,1-1.163.292,1.859,1.859,0,0,1-1.186-.4,2.041,2.041,0,0,1-.7-1.016,6.144,6.144,0,0,1-.2-1.758v-3.631a1.788,1.788,0,0,0-.124-.8.827.827,0,0,0-.368-.342,2.168,2.168,0,0,0-.883-.111v-.328h2.85v5.443a2.031,2.031,0,0,0,.4,1.491,1.376,1.376,0,0,0,.954.355,1.99,1.99,0,0,0,.866-.239,4.665,4.665,0,0,0,1.15-.914v-4.608a1.3,1.3,0,0,0-.253-.937,1.643,1.643,0,0,0-1.052-.262v-.328h2.771Z" transform="translate(-223.865 -274.988)" fill="#006"/>
      <path id="Caminho_627" data-name="Caminho 627" d="M298.259,286.036a13.436,13.436,0,0,1-1.572,1.119,2.4,2.4,0,0,1-1.021.222,1.828,1.828,0,0,1-1.39-.578,2.115,2.115,0,0,1-.546-1.517,1.938,1.938,0,0,1,.266-1.031,3.526,3.526,0,0,1,1.265-1.136,19.621,19.621,0,0,1,3-1.3v-.32a2.651,2.651,0,0,0-.386-1.669,1.4,1.4,0,0,0-1.123-.453,1.262,1.262,0,0,0-.888.3.91.91,0,0,0-.338.693l.018.515a.885.885,0,0,1-.209.63.713.713,0,0,1-.546.222.689.689,0,0,1-.537-.231.9.9,0,0,1-.209-.63,1.817,1.817,0,0,1,.781-1.4,3.373,3.373,0,0,1,2.193-.639,3.8,3.8,0,0,1,1.776.364,1.676,1.676,0,0,1,.772.861,4.86,4.86,0,0,1,.16,1.563v2.76a12.67,12.67,0,0,0,.044,1.425.592.592,0,0,0,.147.35.347.347,0,0,0,.235.089.48.48,0,0,0,.249-.062,5.526,5.526,0,0,0,.719-.648v.5q-.994,1.331-1.9,1.331a.864.864,0,0,1-.692-.3A1.637,1.637,0,0,1,298.259,286.036Zm0-.577v-3.1a17.644,17.644,0,0,0-1.731.755,2.984,2.984,0,0,0-1,.817,1.58,1.58,0,0,0-.3.932,1.521,1.521,0,0,0,.382,1.061,1.156,1.156,0,0,0,.879.421A3.218,3.218,0,0,0,298.259,285.459Z" transform="translate(-240.373 -274.582)" fill="#006"/>
      <path id="Caminho_628" data-name="Caminho 628" d="M316.9,278.835v1.829q1.021-1.829,2.1-1.829a1.141,1.141,0,0,1,.808.3.914.914,0,0,1,.319.688.814.814,0,0,1-.231.586.736.736,0,0,1-.55.239,1.17,1.17,0,0,1-.7-.306,1.148,1.148,0,0,0-.573-.306.529.529,0,0,0-.346.178,4.279,4.279,0,0,0-.826,1.2v3.9a2.41,2.41,0,0,0,.169,1.021.919.919,0,0,0,.408.4,1.8,1.8,0,0,0,.844.159v.32h-4.164v-.32a1.724,1.724,0,0,0,.924-.2.759.759,0,0,0,.311-.453,4.6,4.6,0,0,0,.044-.861v-3.153a13.2,13.2,0,0,0-.057-1.691.662.662,0,0,0-.213-.395.6.6,0,0,0-.386-.125,1.764,1.764,0,0,0-.622.133l-.089-.32,2.459-.994Z" transform="translate(-253.173 -274.581)" fill="#006"/>
      <path id="Caminho_629" data-name="Caminho 629" d="M337.431,279.07a4.1,4.1,0,0,1-1.163.892,2.818,2.818,0,0,1-1.225.271,3.031,3.031,0,0,1-2.326-1.114,4.138,4.138,0,0,1-.994-2.864,5.177,5.177,0,0,1,1.1-3.2,3.4,3.4,0,0,1,2.832-1.451,2.44,2.44,0,0,1,1.776.684v-1.5a12.2,12.2,0,0,0-.067-1.714.745.745,0,0,0-.209-.435.546.546,0,0,0-.355-.116,1.868,1.868,0,0,0-.613.142l-.115-.311,2.424-.994h.4v9.4a12.561,12.561,0,0,0,.067,1.745.779.779,0,0,0,.213.44.514.514,0,0,0,.342.125,1.939,1.939,0,0,0,.639-.151l.1.311-2.415,1h-.409V279.07Zm0-.622v-4.191a2.834,2.834,0,0,0-.319-1.1,1.846,1.846,0,0,0-.706-.751,1.714,1.714,0,0,0-.857-.253,1.816,1.816,0,0,0-1.394.7,3.985,3.985,0,0,0-.808,2.7,4.239,4.239,0,0,0,.781,2.747,2.238,2.238,0,0,0,1.74.955A2.16,2.16,0,0,0,337.431,278.448Z" transform="translate(-264.283 -267.358)" fill="#006"/>
      <path id="Caminho_630" data-name="Caminho 630" d="M360.209,278.835a3.6,3.6,0,0,1,2.965,1.4,4.308,4.308,0,0,1,.95,2.752,5.178,5.178,0,0,1-.524,2.211,3.72,3.72,0,0,1-3.489,2.255,3.444,3.444,0,0,1-2.921-1.465,4.537,4.537,0,0,1-.914-2.77,4.913,4.913,0,0,1,.555-2.224,3.79,3.79,0,0,1,1.46-1.633A3.746,3.746,0,0,1,360.209,278.835Zm-.275.577a1.849,1.849,0,0,0-.945.279,1.965,1.965,0,0,0-.768.981,4.722,4.722,0,0,0-.293,1.8,6.284,6.284,0,0,0,.706,3.063,2.1,2.1,0,0,0,1.86,1.288,1.735,1.735,0,0,0,1.421-.711,4.037,4.037,0,0,0,.559-2.442,5.561,5.561,0,0,0-.932-3.409A1.919,1.919,0,0,0,359.934,279.412Z" transform="translate(-279.736 -274.581)" fill="#006"/>
      <path id="Caminho_631" data-name="Caminho 631" d="M402.87,268.941l.133,2.824h-.337a3.4,3.4,0,0,0-.266-1.066,1.781,1.781,0,0,0-.732-.759,2.554,2.554,0,0,0-1.2-.244h-1.7v9.2a2.472,2.472,0,0,0,.239,1.385,1.335,1.335,0,0,0,1.039.373h.417v.329h-5.1v-.329h.426a1.224,1.224,0,0,0,1.084-.462,2.7,2.7,0,0,0,.195-1.3v-9.2h-1.447a4.03,4.03,0,0,0-1.2.125,1.643,1.643,0,0,0-.791.648,2.627,2.627,0,0,0-.391,1.3H392.9l.142-2.824Z" transform="translate(-302.786 -268.354)" fill="#006"/>
      <path id="Caminho_632" data-name="Caminho 632" d="M424.463,282.123a4.171,4.171,0,0,0,.878,2.841,2.679,2.679,0,0,0,2.087,1.03,2.264,2.264,0,0,0,1.39-.44,3.247,3.247,0,0,0,.99-1.505l.275.178A4.237,4.237,0,0,1,429,286.442a2.893,2.893,0,0,1-2.246,1,3.279,3.279,0,0,1-2.508-1.141,4.368,4.368,0,0,1-1.043-3.067,4.635,4.635,0,0,1,1.07-3.254,3.489,3.489,0,0,1,2.686-1.168,3,3,0,0,1,2.246.9,3.306,3.306,0,0,1,.879,2.411h-5.62Zm0-.515h3.764a3.468,3.468,0,0,0-.186-1.1,1.762,1.762,0,0,0-.661-.781,1.67,1.67,0,0,0-.919-.284,1.832,1.832,0,0,0-1.318.572A2.486,2.486,0,0,0,424.463,281.608Z" transform="translate(-321.857 -274.566)" fill="#006"/>
      <path id="Caminho_633" data-name="Caminho 633" d="M446.3,278.835v1.829q1.021-1.829,2.1-1.829a1.142,1.142,0,0,1,.808.3.915.915,0,0,1,.319.688.812.812,0,0,1-.231.586.737.737,0,0,1-.55.239,1.171,1.171,0,0,1-.7-.306,1.148,1.148,0,0,0-.573-.306.528.528,0,0,0-.346.178,4.27,4.27,0,0,0-.826,1.2v3.9a2.418,2.418,0,0,0,.169,1.021.918.918,0,0,0,.408.4,1.8,1.8,0,0,0,.844.159v.32h-4.164v-.32a1.724,1.724,0,0,0,.924-.2.759.759,0,0,0,.311-.453,4.554,4.554,0,0,0,.044-.861v-3.153a13.263,13.263,0,0,0-.057-1.691.664.664,0,0,0-.213-.395.6.6,0,0,0-.386-.125,1.762,1.762,0,0,0-.622.133l-.088-.32,2.459-.994Z" transform="translate(-334.612 -274.581)" fill="#006"/>
      <path id="Caminho_634" data-name="Caminho 634" d="M462.636,278.835v1.829q1.021-1.829,2.1-1.829a1.141,1.141,0,0,1,.808.3.915.915,0,0,1,.319.688.812.812,0,0,1-.231.586.735.735,0,0,1-.55.239,1.171,1.171,0,0,1-.7-.306,1.147,1.147,0,0,0-.573-.306.53.53,0,0,0-.346.178,4.3,4.3,0,0,0-.826,1.2v3.9a2.4,2.4,0,0,0,.169,1.021.918.918,0,0,0,.408.4,1.8,1.8,0,0,0,.844.159v.32h-4.164v-.32a1.722,1.722,0,0,0,.923-.2.759.759,0,0,0,.311-.453,4.586,4.586,0,0,0,.044-.861v-3.153a13.151,13.151,0,0,0-.058-1.691.662.662,0,0,0-.213-.395.6.6,0,0,0-.387-.125,1.762,1.762,0,0,0-.622.133l-.089-.32,2.459-.994Z" transform="translate(-344.893 -274.581)" fill="#006"/>
      <path id="Caminho_635" data-name="Caminho 635" d="M482.107,286.036a13.441,13.441,0,0,1-1.571,1.119,2.394,2.394,0,0,1-1.021.222,1.829,1.829,0,0,1-1.39-.578,2.117,2.117,0,0,1-.546-1.517,1.938,1.938,0,0,1,.266-1.031,3.526,3.526,0,0,1,1.265-1.136,19.6,19.6,0,0,1,3-1.3v-.32a2.655,2.655,0,0,0-.386-1.669,1.4,1.4,0,0,0-1.123-.453,1.262,1.262,0,0,0-.888.3.91.91,0,0,0-.338.693l.018.515a.885.885,0,0,1-.209.63.714.714,0,0,1-.547.222.687.687,0,0,1-.536-.231.9.9,0,0,1-.209-.63,1.816,1.816,0,0,1,.782-1.4,3.372,3.372,0,0,1,2.193-.639,3.8,3.8,0,0,1,1.776.364,1.674,1.674,0,0,1,.772.861,4.857,4.857,0,0,1,.16,1.563v2.76a12.675,12.675,0,0,0,.044,1.425.6.6,0,0,0,.146.35.348.348,0,0,0,.235.089.483.483,0,0,0,.249-.062,5.559,5.559,0,0,0,.719-.648v.5q-.994,1.331-1.9,1.331a.864.864,0,0,1-.692-.3A1.635,1.635,0,0,1,482.107,286.036Zm0-.577v-3.1a17.71,17.71,0,0,0-1.732.755,2.987,2.987,0,0,0-1,.817,1.58,1.58,0,0,0-.3.932,1.525,1.525,0,0,0,.382,1.061,1.157,1.157,0,0,0,.879.421A3.219,3.219,0,0,0,482.107,285.459Z" transform="translate(-356.08 -274.582)" fill="#006"/>
      <path id="Caminho_636" data-name="Caminho 636" d="M520.909,277.651l.293.062-1.03,3.267H510.85v-.329h.453a1.211,1.211,0,0,0,1.092-.5,2.872,2.872,0,0,0,.186-1.314v-7.769a2.476,2.476,0,0,0-.249-1.411,1.3,1.3,0,0,0-1.029-.391h-.453v-.329H516.3v.329a3.321,3.321,0,0,0-1.345.178,1.085,1.085,0,0,0-.529.471,3.865,3.865,0,0,0-.142,1.358v7.564a2.454,2.454,0,0,0,.142,1.012.627.627,0,0,0,.329.275,5.748,5.748,0,0,0,1.385.089h.879a6.371,6.371,0,0,0,1.944-.2,2.524,2.524,0,0,0,1.021-.724A5.882,5.882,0,0,0,520.909,277.651Z" transform="translate(-377.019 -268.354)" fill="#006"/>
      <path id="Caminho_637" data-name="Caminho 637" d="M547.564,279.481v4.927a12.41,12.41,0,0,0,.067,1.727.78.78,0,0,0,.213.44.515.515,0,0,0,.342.125,1.585,1.585,0,0,0,.621-.151l.125.311-2.433,1h-.4V286.14a7.385,7.385,0,0,1-1.6,1.43,2.45,2.45,0,0,1-1.164.292,1.857,1.857,0,0,1-1.185-.4,2.044,2.044,0,0,1-.7-1.016,6.129,6.129,0,0,1-.2-1.758v-3.631a1.781,1.781,0,0,0-.125-.8.829.829,0,0,0-.368-.342,2.17,2.17,0,0,0-.884-.111v-.328h2.85v5.443a2.031,2.031,0,0,0,.4,1.491,1.378,1.378,0,0,0,.954.355,1.989,1.989,0,0,0,.866-.239,4.659,4.659,0,0,0,1.15-.914v-4.608a1.305,1.305,0,0,0-.253-.937,1.643,1.643,0,0,0-1.053-.262v-.328h2.771Z" transform="translate(-395.292 -274.988)" fill="#006"/>
      <path id="Caminho_638" data-name="Caminho 638" d="M572.894,284.118a4.4,4.4,0,0,1-1.287,2.472,3.1,3.1,0,0,1-2.122.866,3.135,3.135,0,0,1-2.415-1.163,4.572,4.572,0,0,1-1.03-3.143,4.333,4.333,0,0,1,1.141-3.116,3.648,3.648,0,0,1,2.739-1.2,3,3,0,0,1,1.97.635,1.755,1.755,0,0,1,.772,1.318.722.722,0,0,1-.217.546.842.842,0,0,1-.608.209.945.945,0,0,1-.79-.337,1.4,1.4,0,0,1-.2-.71,1.165,1.165,0,0,0-.359-.8,1.282,1.282,0,0,0-.861-.266,1.759,1.759,0,0,0-1.429.657,3.49,3.49,0,0,0-.719,2.3,4.661,4.661,0,0,0,.715,2.571,2.2,2.2,0,0,0,1.931,1.114,2.334,2.334,0,0,0,1.562-.595,4.018,4.018,0,0,0,.95-1.483Z" transform="translate(-411.754 -274.582)" fill="#006"/>
      <path id="Caminho_639" data-name="Caminho 639" d="M592.416,286.036a13.362,13.362,0,0,1-1.571,1.119,2.393,2.393,0,0,1-1.021.222,1.826,1.826,0,0,1-1.389-.578,2.116,2.116,0,0,1-.546-1.517,1.938,1.938,0,0,1,.266-1.031,3.527,3.527,0,0,1,1.265-1.136,19.64,19.64,0,0,1,3-1.3v-.32a2.651,2.651,0,0,0-.386-1.669,1.4,1.4,0,0,0-1.123-.453,1.262,1.262,0,0,0-.888.3.909.909,0,0,0-.337.693l.017.515a.885.885,0,0,1-.209.63.714.714,0,0,1-.546.222.689.689,0,0,1-.537-.231.9.9,0,0,1-.209-.63,1.818,1.818,0,0,1,.782-1.4,3.372,3.372,0,0,1,2.193-.639,3.8,3.8,0,0,1,1.776.364,1.674,1.674,0,0,1,.772.861,4.858,4.858,0,0,1,.16,1.563v2.76a12.682,12.682,0,0,0,.044,1.425.593.593,0,0,0,.147.35.346.346,0,0,0,.235.089.482.482,0,0,0,.249-.062,5.46,5.46,0,0,0,.719-.648v.5q-.994,1.331-1.9,1.331a.864.864,0,0,1-.693-.3A1.633,1.633,0,0,1,592.416,286.036Zm0-.577v-3.1a17.579,17.579,0,0,0-1.731.755,2.973,2.973,0,0,0-1,.817,1.58,1.58,0,0,0-.3.932,1.524,1.524,0,0,0,.381,1.061,1.158,1.158,0,0,0,.879.421A3.218,3.218,0,0,0,592.416,285.459Z" transform="translate(-425.505 -274.582)" fill="#006"/>
      <path id="Caminho_640" data-name="Caminho 640" d="M615.245,278.835v2.77h-.293a3.6,3.6,0,0,0-.866-1.776,1.945,1.945,0,0,0-1.345-.471,1.485,1.485,0,0,0-1,.329.953.953,0,0,0-.381.728,1.323,1.323,0,0,0,.284.852,3.164,3.164,0,0,0,1.119.772l1.3.63a2.634,2.634,0,0,1,1.8,2.317,2.188,2.188,0,0,1-.839,1.789,2.906,2.906,0,0,1-1.878.679,6.453,6.453,0,0,1-1.7-.267,1.725,1.725,0,0,0-.48-.088.352.352,0,0,0-.319.23h-.293v-2.9h.293a3.3,3.3,0,0,0,.95,1.874,2.289,2.289,0,0,0,1.571.63,1.407,1.407,0,0,0,1-.359,1.143,1.143,0,0,0,.386-.866,1.378,1.378,0,0,0-.431-1.03,7.493,7.493,0,0,0-1.718-1.056,5.085,5.085,0,0,1-1.687-1.155,2,2,0,0,1-.4-1.278A2.257,2.257,0,0,1,611,279.51a2.436,2.436,0,0,1,1.781-.675,4.178,4.178,0,0,1,1.163.2,2.751,2.751,0,0,0,.6.133.357.357,0,0,0,.222-.062.85.85,0,0,0,.186-.275h.293Z" transform="translate(-439.615 -274.581)" fill="#006"/>
    </g>
    <g id="Grupo_1392" data-name="Grupo 1392" transform="translate(3400.016 5112.749)">
      <g id="Grupo_1384" data-name="Grupo 1384" transform="translate(0 0.116)">
        <path id="Caminho_641" data-name="Caminho 641" d="M253.873,331.283q-.034,1.29-.034,2.579,0,2.549-2.088,2.548a2.014,2.014,0,0,1-1.554-.564,3.006,3.006,0,0,1-.522-2.027q0-1.289-.035-2.537h1.087q-.051,1.3-.05,2.5a2.738,2.738,0,0,0,.269,1.446.936.936,0,0,0,.829.392.946.946,0,0,0,.848-.39,2.827,2.827,0,0,0,.261-1.457q0-1.17-.05-2.494Z" transform="translate(-249.639 -331.283)" fill="#369"/>
      </g>
      <g id="Grupo_1385" data-name="Grupo 1385" transform="translate(14.681 0.094)">
        <path id="Caminho_642" data-name="Caminho 642" d="M293.3,336.242h-1.136a7.556,7.556,0,0,0-.683-1.677.9.9,0,0,0-.768-.318c-.149,0-.291,0-.426,0q0,.987.034,1.992H289.25q.05-1.159.05-2.614,0-1.4-.05-2.383h.664c.077,0,.237,0,.481-.012s.47-.012.678-.012q1.762,0,1.762,1.205a1.35,1.35,0,0,1-1.006,1.331v.058a1.2,1.2,0,0,1,.679.6A13.344,13.344,0,0,1,293.3,336.242Zm-1.439-3.531q0-.763-.983-.764a3.4,3.4,0,0,0-.638.054q.042.595.042,1.551c.141,0,.26.007.357.007Q291.857,333.559,291.857,332.71Z" transform="translate(-289.25 -331.222)" fill="#369"/>
      </g>
      <g id="Grupo_1386" data-name="Grupo 1386" transform="translate(28.534)">
        <path id="Caminho_643" data-name="Caminho 643" d="M331.512,333.492a2.755,2.755,0,0,1-.722,1.954,2.341,2.341,0,0,1-1.785.775,2.257,2.257,0,0,1-1.7-.712,2.508,2.508,0,0,1-.683-1.811,2.758,2.758,0,0,1,.721-1.953,2.342,2.342,0,0,1,1.785-.776,2.258,2.258,0,0,1,1.7.711A2.51,2.51,0,0,1,331.512,333.492Zm-1.06.112a1.985,1.985,0,0,0-.411-1.3,1.266,1.266,0,0,0-1.013-.5,1.172,1.172,0,0,0-.952.5,2.006,2.006,0,0,0-.391,1.271,1.98,1.98,0,0,0,.413,1.3,1.266,1.266,0,0,0,1.011.5,1.169,1.169,0,0,0,.951-.505A2,2,0,0,0,330.453,333.6Z" transform="translate(-326.626 -330.969)" fill="#369"/>
      </g>
      <g id="Grupo_1387" data-name="Grupo 1387" transform="translate(43.697 0.116)">
        <path id="Caminho_644" data-name="Caminho 644" d="M370.756,335.444l-.031.837h-3.19q.046-1.04.046-2.614,0-1.443-.046-2.383h1.079q-.046.871-.046,2.383,0,1.155-.05,1.835Q369.577,335.5,370.756,335.444Z" transform="translate(-367.535 -331.283)" fill="#369"/>
      </g>
      <g id="Grupo_1388" data-name="Grupo 1388" transform="translate(56.683)">
        <path id="Caminho_645" data-name="Caminho 645" d="M407.458,333.492a2.755,2.755,0,0,1-.722,1.954,2.341,2.341,0,0,1-1.785.775,2.257,2.257,0,0,1-1.7-.712,2.507,2.507,0,0,1-.683-1.811,2.758,2.758,0,0,1,.721-1.953,2.342,2.342,0,0,1,1.785-.776,2.258,2.258,0,0,1,1.7.711A2.508,2.508,0,0,1,407.458,333.492Zm-1.06.112a1.985,1.985,0,0,0-.41-1.3,1.266,1.266,0,0,0-1.013-.5,1.172,1.172,0,0,0-.952.5,2.009,2.009,0,0,0-.392,1.271,1.978,1.978,0,0,0,.412,1.3,1.265,1.265,0,0,0,1.011.5,1.169,1.169,0,0,0,.951-.505A2,2,0,0,0,406.4,333.6Z" transform="translate(-402.572 -330.969)" fill="#369"/>
      </g>
      <g id="Grupo_1389" data-name="Grupo 1389" transform="translate(71.664 0.047)">
        <path id="Caminho_646" data-name="Caminho 646" d="M447.2,336.033a6.355,6.355,0,0,1-1.527.234,2.619,2.619,0,0,1-2-.723,2.468,2.468,0,0,1-.681-1.756,2.646,2.646,0,0,1,2.8-2.691,4.761,4.761,0,0,1,1.09.112l-.127.905a4.364,4.364,0,0,0-1.082-.157,1.457,1.457,0,0,0-1.209.5,1.877,1.877,0,0,0-.4,1.215,1.95,1.95,0,0,0,.447,1.278,1.509,1.509,0,0,0,1.234.545,3.279,3.279,0,0,0,.506-.046,6.223,6.223,0,0,1-.057-.837,6.048,6.048,0,0,0-.081-.933H447.2q-.031.592-.031,1.19Q447.173,335.3,447.2,336.033Z" transform="translate(-442.993 -331.096)" fill="#369"/>
      </g>
      <g id="Grupo_1390" data-name="Grupo 1390" transform="translate(86.234 0.116)">
        <path id="Caminho_647" data-name="Caminho 647" d="M483.391,336.28H482.3q.05-1.189.05-2.614,0-1.4-.05-2.383h1.087q-.051.966-.051,2.383Q483.341,335.114,483.391,336.28Z" transform="translate(-482.304 -331.283)" fill="#369"/>
      </g>
      <g id="Grupo_1391" data-name="Grupo 1391" transform="translate(97.344 0.117)">
        <path id="Caminho_648" data-name="Caminho 648" d="M517.144,336.281h-1.228a8.154,8.154,0,0,0-.349-1.435h-1.773a7.434,7.434,0,0,0-.361,1.435h-1.155q0-.15.9-2.456a19.383,19.383,0,0,0,.9-2.541h1.451a21.137,21.137,0,0,0,.812,2.5A22.045,22.045,0,0,1,517.144,336.281Zm-1.774-2.168a21.762,21.762,0,0,1-.656-2.142h-.061q0,.15-.68,2.142Z" transform="translate(-512.278 -331.284)" fill="#369"/>
      </g>
    </g>
  </g>
</svg>
